<?xml version="1.0" encoding="utf-8"?>
<!-- Generator: Adobe Illustrator 28.4.1, SVG Export Plug-In . SVG Version: 6.00 Build 0)  -->
<svg version="1.1" id="Layer_1" xmlns="http://www.w3.org/2000/svg" xmlns:xlink="http://www.w3.org/1999/xlink" x="0px" y="0px"
	 viewBox="0 0 100 100" style="enable-background:new 0 0 100 100;" xml:space="preserve">
<style type="text/css">
	.st0{fill:#FFFFFF;}
	.st1{fill:#FEFEFE;}
	.st2{fill:#6EAB05;}
	.st3{fill:#06B9C0;}
	.st4{fill:#424242;}
</style>
<path class="st0" d="M88.9,100H11.1C5,100,0,95,0,88.9V11.1C0,5,5,0,11.1,0h77.8C95,0,100,5,100,11.1v77.8C100,95,95,100,88.9,100z"
	/>
<g>
	<path class="st1" d="M50.3,3.3c-6.9,0-13.2,2-18.8,6.1C24.8,14.3,20.7,21,18.9,29.1c-0.1,0.5-0.4,1.1,0,1.5c0.5,0.5,1-0.1,1.4-0.3
		c2.6-1,5.2-1.7,7.9-2c1.2-0.1,1.8-0.6,2.3-1.7c2.7-6,7.2-10,13.5-12.1c8.8-2.8,18.8,0.7,24.2,8.6c5.3,7.7,4.8,18.4-1,25.5
		c-0.8,0.9-1.5,1.4-2.8,1.5c-6.1,0.4-11,4.8-12.1,10.6s1.8,11.9,6.9,14.4c5.4,2.7,12,1.6,15.8-2.6c4.3-4.7,5-11.1,1.6-16.3
		c-0.8-1.3-0.7-2,0.1-3.1c3.4-4.9,5.2-10.3,5.5-16.2C83.2,18.6,68.6,3.4,50.3,3.3z M1.2,67.1c0.3,9.3,5.3,18.6,15.4,24.8
		c8.4,5.2,17.5,5.8,26.9,2.9c1.4-0.4,1.6-0.9,0.3-1.8c-1.7-1.3-3.4-2.7-4.5-4.4c-1.4-2.2-3.2-2.5-5.7-2.5
		c-8.8,0.2-15.4-3.7-19.6-11.3c-4.1-7.7-3.7-15.5,1.4-22.6c5-7,12-9.9,20.6-9c1.3,0.1,2.1,0.7,2.9,1.8c3.4,5.1,9.7,7,15.5,5
		c5.6-2,9.1-7.4,8.7-13.8c-0.3-5.5-4.7-10.5-10.5-11.8c-5.6-1.3-11.7,1.5-14.4,6.8c-0.7,1.4-1.5,1.6-2.9,1.6
		C16.5,31.6,1.2,45.9,1.2,67.1z M86.4,39.5c-0.5,3.5-1.2,6.6-2.5,9.6c-0.5,1.1-0.3,1.9,0.4,2.9c4,5.6,5.1,11.7,3.5,18.4
		c-2.2,8.9-10.4,15.5-19.9,16c-9,0.5-17.8-5.2-21.1-13.6c-0.5-1.2-0.6-2.2,0.1-3.4c1-1.8,1.4-3.9,1.4-6c-0.2-7.6-6.3-13.3-14.2-13
		c-7,0.2-12.7,6.5-12.5,13.7c0.3,7.5,6.5,13.2,14,12.7c1.4-0.1,1.9,0.4,2.5,1.6C44,91,58,98.4,71.6,96.3c19.9-3.1,32-23.1,25.4-42.2
		C95,48.3,91.5,43.5,86.4,39.5z"/>
	<path class="st2" d="M50.3,3.3c18.3,0,32.8,15.3,31.9,33.6c-0.3,5.9-2.1,11.3-5.5,16.2c-0.8,1.1-0.9,1.9-0.1,3.1
		c3.4,5.2,2.7,11.7-1.6,16.4c-3.8,4.2-10.4,5.3-15.8,2.6c-5.1-2.6-8-8.6-6.9-14.4s6-10.2,12.1-10.6c1.3-0.1,2.1-0.6,2.8-1.5
		c5.8-7.1,6.2-17.8,1-25.5c-5.4-7.9-15.4-11.4-24.2-8.6c-6.3,2-10.8,6-13.5,12.1c-0.5,1.1-1.1,1.6-2.3,1.7c-2.7,0.3-5.3,1.1-7.9,2
		c-0.5,0.2-1,0.8-1.4,0.3c-0.4-0.4-0.1-1,0-1.5c1.7-8.1,5.8-14.8,12.6-19.7C37.1,5.3,43.4,3.3,50.3,3.3z"/>
	<path class="st3" d="M1.2,67.1c0.1-21.2,15.4-35.5,34.1-34.4c1.4,0.1,2.2-0.2,2.9-1.6c2.7-5.3,8.8-8,14.4-6.8
		c5.8,1.3,10.2,6.2,10.5,11.8c0.4,6.4-3.1,11.8-8.7,13.8c-5.8,2-12.1,0.1-15.5-5c-0.8-1.1-1.6-1.6-2.9-1.8c-8.6-1-15.7,2-20.6,9
		c-5,7.1-5.5,14.9-1.4,22.6S24.8,86.3,33.6,86c2.5-0.1,4.3,0.3,5.7,2.5c1.1,1.8,2.8,3.2,4.5,4.4c1.3,0.9,1,1.4-0.3,1.8
		C34.1,97.6,25,97,16.6,91.8C6.5,85.7,1.5,76.4,1.2,67.1z"/>
	<path class="st4" d="M86.4,39.5c5.1,4,8.6,8.8,10.6,14.7c6.5,19.1-5.6,39.1-25.4,42.2C58,98.4,44,91,38.1,78.4
		c-0.5-1.2-1.1-1.6-2.5-1.6c-7.5,0.4-13.7-5.3-14-12.7c-0.3-7.2,5.5-13.5,12.5-13.7c7.8-0.3,14,5.4,14.2,13c0,2.1-0.3,4.1-1.4,6
		c-0.7,1.2-0.6,2.2-0.1,3.4c3.3,8.4,12.1,14.1,21.1,13.6c9.4-0.5,17.7-7.1,19.9-16c1.7-6.6,0.6-12.8-3.5-18.4
		c-0.7-1-0.9-1.7-0.4-2.9C85.2,46.1,85.9,42.9,86.4,39.5z"/>
</g>
<rect x="132.6" y="2.2" class="st2" width="25.5" height="11.5"/>
<rect x="132.6" y="32.7" class="st3" width="25.5" height="11.5"/>
<rect x="132.6" y="63.3" class="st4" width="25.5" height="11.5"/>
<text transform="matrix(1 0 0 1 133.6516 9.9507)" style="font-family:'MyriadPro-Regular'; font-size:6.509px;">#6EAB05</text>
<text transform="matrix(1 0 0 1 133.6516 40.8912)" style="font-family:'MyriadPro-Regular'; font-size:6.509px;">#06B9C0</text>
<text transform="matrix(1 0 0 1 133.6516 70.9371)" style="font-family:'MyriadPro-Regular'; font-size:6.509px;">#424242</text>
</svg>
